<?xml version="1.0" encoding="UTF-8" standalone="no"?>
<svg
   viewBox="0 0 980 270"
   role="img"
   aria-labelledby="title desc"
   version="1.1"
   id="svg21"
   xmlns="http://www.w3.org/2000/svg"
   xmlns:svg="http://www.w3.org/2000/svg">
  <title
     id="title">Simple Flow</title>
  <desc
     id="desc">Online vállalkozástámogatás</desc>
  <defs
     id="defs11">
    <linearGradient
       id="flow-gradient"
       x1="0"
       y1="0"
       x2="1"
       y2="1">
      <stop
         offset="0"
         stop-color="#c95891"
         id="stop4" />
      <stop
         offset="0.45"
         stop-color="#9b7dac"
         id="stop6" />
      <stop
         offset="1"
         stop-color="#3f608f"
         id="stop8" />
    </linearGradient>
  </defs>
  <g
     transform="translate(26,20)"
     fill="none"
     stroke="url(#flow-gradient)"
     stroke-width="10"
     stroke-linecap="square"
     stroke-linejoin="miter"
     id="g15">
    <path
       d="M 48,28 H 228 V 208 H 28 V 48 H 208 V 188 H 48 V 68 H 188 V 168 H 68 V 88 h 100 v 60 H 88 v -40 h 60 v 20 h -32"
       id="path13" />
  </g>
  <g
     aria-label="Simple Flow"
     id="text17"
     style="font-weight:500;font-size:78px;font-family:'Plus Jakarta Sans', Arial, sans-serif;letter-spacing:-3;fill:#2a3937">
    <path
       d="m 346.442,137.936 q -5.538,0 -10.14,-2.028 -4.602,-2.106 -7.8,-5.694 -3.198,-3.588 -4.602,-8.034 l 6.63,-2.73 q 2.106,5.616 6.24,8.658 4.212,2.964 9.828,2.964 3.432,0 6.006,-1.092 2.574,-1.092 3.978,-3.042 1.482,-2.028 1.482,-4.68 0,-3.666 -2.106,-5.772 -2.028,-2.184 -6.006,-3.276 l -10.686,-3.276 q -6.318,-1.95 -9.672,-6.162 -3.354,-4.212 -3.354,-9.672 0,-4.758 2.262,-8.346 2.34,-3.666 6.396,-5.694 4.134,-2.106 9.36,-2.106 5.226,0 9.438,1.872 4.29,1.872 7.254,5.07 2.964,3.12 4.368,7.176 l -6.552,2.73 q -1.872,-4.914 -5.616,-7.41 -3.744,-2.574 -8.814,-2.574 -3.12,0 -5.538,1.092 -2.34,1.014 -3.666,3.042 -1.248,1.95 -1.248,4.68 0,3.198 2.028,5.694 2.028,2.496 6.162,3.822 l 9.75,2.886 q 6.864,2.106 10.374,6.006 3.51,3.9 3.51,9.672 0,4.758 -2.496,8.424 -2.418,3.666 -6.786,5.772 -4.29,2.028 -9.984,2.028 z"
       id="path25" />
    <path
       d="M 373.00399,137 V 94.958 h 7.254 V 137 Z m 0,-48.75 v -9.36 h 7.254 v 9.36 z"
       id="path27" />
    <path
       d="M 388.48995,137 V 94.958 h 7.098 v 8.58 l -1.014,-1.326 q 1.56,-3.978 4.992,-6.084 3.432,-2.106 7.722,-2.106 4.914,0 8.814,2.73 3.978,2.73 5.46,7.176 l -2.028,0.078 q 1.638,-4.914 5.538,-7.41 3.9,-2.574 8.658,-2.574 4.368,0 7.878,2.028 3.588,2.028 5.694,5.616 2.106,3.588 2.106,8.112 V 137 h -7.332 v -24.882 q 0,-3.51 -1.248,-5.928 -1.248,-2.418 -3.432,-3.744 -2.106,-1.404 -4.992,-1.404 -2.808,0 -5.07,1.404 -2.184,1.326 -3.51,3.822 -1.248,2.418 -1.248,5.85 V 137 h -7.332 v -24.882 q 0,-3.51 -1.248,-5.928 -1.248,-2.418 -3.432,-3.744 -2.106,-1.404 -4.992,-1.404 -2.808,0 -5.07,1.404 -2.184,1.326 -3.51,3.822 -1.248,2.418 -1.248,5.85 V 137 Z"
       id="path29" />
    <path
       d="M 456.70395,152.6 V 94.958 h 7.098 v 9.048 l -0.936,-1.794 q 2.34,-3.744 6.396,-5.928 4.056,-2.262 9.282,-2.262 5.928,0 10.608,2.886 4.758,2.886 7.488,7.878 2.73,4.914 2.73,11.232 0,6.162 -2.73,11.154 -2.73,4.992 -7.488,7.878 -4.68,2.886 -10.686,2.886 -5.07,0 -9.282,-2.262 -4.134,-2.262 -6.396,-6.396 l 1.17,-1.248 v 24.57 z m 21.216,-21.684 q 3.978,0 7.098,-1.95 3.12,-1.95 4.836,-5.304 1.794,-3.432 1.794,-7.644 0,-4.368 -1.794,-7.644 -1.716,-3.354 -4.836,-5.304 -3.12,-2.028 -7.098,-2.028 -3.978,0 -7.176,1.95 -3.12,1.95 -4.992,5.382 -1.794,3.354 -1.794,7.644 0,4.212 1.794,7.644 1.872,3.354 4.992,5.304 3.198,1.95 7.176,1.95 z"
       id="path31" />
    <path
       d="M 505.886,137 V 77.954 h 7.254 V 137 Z"
       id="path33" />
    <path
       d="m 540.71597,137.936 q -6.084,0 -10.842,-2.886 -4.758,-2.886 -7.488,-7.878 -2.73,-5.07 -2.73,-11.31 0,-6.318 2.652,-11.232 2.73,-4.914 7.332,-7.722 4.68,-2.886 10.452,-2.886 4.68,0 8.268,1.716 3.666,1.638 6.162,4.524 2.574,2.808 3.9,6.474 1.404,3.588 1.404,7.488 0,0.858 -0.156,1.95 -0.078,1.014 -0.234,1.95 h -34.476 v -6.24 h 30.264 l -3.432,2.808 q 0.702,-4.056 -0.78,-7.254 -1.482,-3.198 -4.368,-5.07 -2.886,-1.872 -6.552,-1.872 -3.666,0 -6.708,1.872 -3.042,1.872 -4.758,5.382 -1.638,3.432 -1.326,8.19 -0.312,4.602 1.404,8.112 1.794,3.432 4.992,5.382 3.276,1.872 7.098,1.872 4.212,0 7.098,-1.95 2.886,-1.95 4.68,-4.992 l 6.084,3.12 q -1.248,2.886 -3.9,5.304 -2.574,2.34 -6.162,3.744 -3.51,1.404 -7.878,1.404 z"
       id="path35" />
    <path
       d="M 577.61603,137 V 78.89 h 36.816 v 7.02 h -29.172 v 18.798 h 26.442 v 7.02 h -26.442 V 137 Z"
       id="path37" />
    <path
       d="M 619.23203,137 V 77.954 h 7.254 V 137 Z"
       id="path39" />
    <path
       d="m 654.68599,137.936 q -6.084,0 -10.998,-2.808 -4.914,-2.886 -7.8,-7.878 -2.886,-4.992 -2.886,-11.31 0,-6.318 2.808,-11.232 2.886,-4.914 7.8,-7.8 4.914,-2.886 11.076,-2.886 6.084,0 10.998,2.886 4.914,2.808 7.722,7.722 2.886,4.914 2.886,11.31 0,6.396 -2.964,11.388 -2.964,4.914 -7.878,7.8 -4.836,2.808 -10.764,2.808 z m 0,-7.02 q 3.9,0 7.02,-1.95 3.198,-1.95 4.992,-5.382 1.872,-3.432 1.872,-7.644 0,-4.29 -1.872,-7.566 -1.794,-3.354 -4.992,-5.304 -3.12,-2.028 -7.02,-2.028 -3.978,0 -7.176,2.028 -3.12,1.95 -4.992,5.304 -1.872,3.276 -1.872,7.566 0,4.212 1.872,7.644 1.872,3.432 4.992,5.382 3.198,1.95 7.176,1.95 z"
       id="path41" />
    <path
       d="m 691.62192,137 -14.43,-42.042 h 8.034 l 11.466,35.178 -2.808,-0.078 11.232,-35.1 h 6.864 l 11.232,35.1 -2.808,0.078 11.544,-35.178 h 7.956 l -14.43,42.042 h -6.942 l -11.076,-35.1 h 2.184 l -11.076,35.1 z"
       id="path43" />
  </g>
  <g
     aria-label="ONLINE VÁLLALKOZÁSTÁMOGATÁS"
     id="text19"
     style="font-weight:600;font-size:16px;font-family:'Plus Jakarta Sans', Arial, sans-serif;letter-spacing:4;fill:#697470">
    <path
       d="m 332.024,181.192 q -1.296,0 -2.416,-0.464 -1.104,-0.464 -1.952,-1.296 -0.832,-0.832 -1.312,-1.952 -0.464,-1.12 -0.464,-2.448 0,-1.328 0.464,-2.448 0.48,-1.136 1.312,-1.952 0.832,-0.832 1.952,-1.28 1.12,-0.464 2.416,-0.464 1.312,0 2.416,0.464 1.12,0.448 1.952,1.28 0.848,0.832 1.312,1.952 0.464,1.12 0.464,2.448 0,1.328 -0.48,2.448 -0.464,1.12 -1.296,1.952 -0.832,0.832 -1.952,1.296 -1.12,0.464 -2.416,0.464 z m 0,-1.728 q 0.928,0 1.696,-0.336 0.784,-0.336 1.36,-0.928 0.576,-0.608 0.896,-1.408 0.32,-0.816 0.32,-1.76 0,-0.944 -0.32,-1.744 -0.32,-0.8 -0.896,-1.408 -0.576,-0.608 -1.36,-0.944 -0.768,-0.336 -1.696,-0.336 -0.928,0 -1.712,0.336 -0.768,0.336 -1.344,0.944 -0.576,0.608 -0.896,1.408 -0.304,0.8 -0.304,1.744 0,0.944 0.304,1.76 0.32,0.8 0.896,1.408 0.576,0.592 1.36,0.928 0.784,0.336 1.696,0.336 z"
       id="path46" />
    <path
       d="m 344.28,181 v -11.92 h 1.52 l 6.688,9.232 -0.72,0.112 v -9.344 h 1.872 V 181 h -1.52 l -6.64,-9.296 0.688,-0.128 V 181 Z"
       id="path48" />
    <path
       d="m 360.10401,181 v -11.92 h 1.888 v 10.24 h 5.152 V 181 Z"
       id="path50" />
    <path
       d="m 372.728,181 v -11.92 h 1.888 V 181 Z"
       id="path52" />
    <path
       d="m 381.07999,181 v -11.92 h 1.52 l 6.688,9.232 -0.72,0.112 v -9.344 h 1.872 V 181 h -1.52 l -6.64,-9.296 0.688,-0.128 V 181 Z"
       id="path54" />
    <path
       d="m 396.904,181 v -11.92 h 7.856 v 1.68 h -5.968 v 3.424 h 5.648 v 1.68 h -5.648 v 3.456 h 5.968 V 181 Z"
       id="path56" />
    <path
       d="m 420.48798,181 -4.224,-11.92 h 2.032 l 3.456,10.176 h -0.4 l 3.44,-10.176 h 2.032 l -4.224,11.92 z"
       id="path58" />
    <path
       d="m 430.37598,181 4.192,-11.92 h 2.336 l 4.192,11.92 h -2.016 l -0.912,-2.672 h -4.848 l -0.928,2.672 z m 3.488,-4.352 h 3.728 l -2.112,-6.24 h 0.528 z m 0.976,-9.152 1.168,-2.64 h 2.368 l -1.744,2.64 z"
       id="path60" />
    <path
       d="m 446.50397,181 v -11.92 h 1.888 v 10.24 h 5.152 V 181 Z"
       id="path62" />
    <path
       d="m 459.12797,181 v -11.92 h 1.888 v 10.24 h 5.152 V 181 Z"
       id="path64" />
    <path
       d="m 470.69596,181 4.192,-11.92 h 2.336 l 4.192,11.92 h -2.016 l -0.912,-2.672 h -4.848 l -0.928,2.672 z m 3.488,-4.352 h 3.728 l -2.112,-6.24 h 0.528 z"
       id="path66" />
    <path
       d="m 486.82395,181 v -11.92 h 1.888 v 10.24 h 5.152 V 181 Z"
       id="path68" />
    <path
       d="m 499.44794,181 v -11.92 h 1.888 v 6.464 l -0.496,-0.192 5.392,-6.272 h 2.352 l -4.768,5.584 0.096,-1.344 4.864,7.68 h -2.224 l -3.488,-5.456 -1.728,2.016 V 181 Z"
       id="path70" />
    <path
       d="m 519.49592,181.192 q -1.296,0 -2.416,-0.464 -1.104,-0.464 -1.952,-1.296 -0.832,-0.832 -1.312,-1.952 -0.464,-1.12 -0.464,-2.448 0,-1.328 0.464,-2.448 0.48,-1.136 1.312,-1.952 0.832,-0.832 1.952,-1.28 1.12,-0.464 2.416,-0.464 1.312,0 2.416,0.464 1.12,0.448 1.952,1.28 0.848,0.832 1.312,1.952 0.464,1.12 0.464,2.448 0,1.328 -0.48,2.448 -0.464,1.12 -1.296,1.952 -0.832,0.832 -1.952,1.296 -1.12,0.464 -2.416,0.464 z m 0,-1.728 q 0.928,0 1.696,-0.336 0.784,-0.336 1.36,-0.928 0.576,-0.608 0.896,-1.408 0.32,-0.816 0.32,-1.76 0,-0.944 -0.32,-1.744 -0.32,-0.8 -0.896,-1.408 -0.576,-0.608 -1.36,-0.944 -0.768,-0.336 -1.696,-0.336 -0.928,0 -1.712,0.336 -0.768,0.336 -1.344,0.944 -0.576,0.608 -0.896,1.408 -0.304,0.8 -0.304,1.744 0,0.944 0.304,1.76 0.32,0.8 0.896,1.408 0.576,0.592 1.36,0.928 0.784,0.336 1.696,0.336 z"
       id="path72" />
    <path
       d="m 530.79193,181 v -1.44 l 6.112,-8.8 h -5.76 v -1.68 h 8.176 v 1.424 l -6.112,8.816 h 6.256 V 181 Z"
       id="path74" />
    <path
       d="m 543.91193,181 4.192,-11.92 h 2.336 l 4.192,11.92 h -2.016 l -0.912,-2.672 h -4.848 l -0.928,2.672 z m 3.488,-4.352 h 3.728 l -2.112,-6.24 h 0.528 z m 0.976,-9.152 1.168,-2.64 h 2.368 l -1.744,2.64 z"
       id="path76" />
    <path
       d="m 564.05592,181.192 q -1.12,0 -2.08,-0.416 -0.96,-0.432 -1.632,-1.168 -0.672,-0.736 -0.992,-1.696 l 1.6,-0.672 q 0.432,1.104 1.264,1.696 0.832,0.592 1.92,0.592 0.64,0 1.12,-0.192 0.48,-0.208 0.736,-0.576 0.272,-0.368 0.272,-0.848 0,-0.656 -0.368,-1.04 -0.368,-0.384 -1.088,-0.608 l -2.24,-0.704 q -1.344,-0.416 -2.048,-1.264 -0.704,-0.864 -0.704,-2.016 0,-1.008 0.496,-1.76 0.496,-0.768 1.36,-1.2 0.88,-0.432 2,-0.432 1.072,0 1.952,0.384 0.88,0.368 1.504,1.024 0.64,0.656 0.928,1.52 l -1.568,0.688 q -0.352,-0.944 -1.104,-1.456 -0.736,-0.512 -1.712,-0.512 -0.592,0 -1.04,0.208 -0.448,0.192 -0.704,0.576 -0.24,0.368 -0.24,0.864 0,0.576 0.368,1.024 0.368,0.448 1.12,0.672 l 2.08,0.656 q 1.424,0.432 2.144,1.248 0.72,0.8 0.72,2 0,0.992 -0.528,1.76 -0.512,0.768 -1.424,1.216 -0.912,0.432 -2.112,0.432 z"
       id="path78" />
    <path
       d="m 576.34391,181 v -10.24 h -3.168 v -1.68 h 8.16 v 1.68 h -3.12 V 181 Z"
       id="path80" />
    <path
       d="m 584.88791,181 4.192,-11.92 h 2.336 l 4.192,11.92 h -2.016 l -0.912,-2.672 h -4.848 l -0.928,2.672 z m 3.488,-4.352 h 3.728 l -2.112,-6.24 h 0.528 z m 0.976,-9.152 1.168,-2.64 h 2.368 l -1.744,2.64 z"
       id="path82" />
    <path
       d="m 601.01591,181 v -11.92 h 1.76 l 4.48,6.208 h -0.88 l 4.4,-6.208 h 1.76 V 181 h -1.872 v -9.696 l 0.704,0.192 -4.496,6.144 h -0.192 l -4.4,-6.144 0.624,-0.192 V 181 Z"
       id="path84" />
    <path
       d="m 624.79191,181.192 q -1.296,0 -2.416,-0.464 -1.104,-0.464 -1.952,-1.296 -0.832,-0.832 -1.312,-1.952 -0.464,-1.12 -0.464,-2.448 0,-1.328 0.464,-2.448 0.48,-1.136 1.312,-1.952 0.832,-0.832 1.952,-1.28 1.12,-0.464 2.416,-0.464 1.312,0 2.416,0.464 1.12,0.448 1.952,1.28 0.848,0.832 1.312,1.952 0.464,1.12 0.464,2.448 0,1.328 -0.48,2.448 -0.464,1.12 -1.296,1.952 -0.832,0.832 -1.952,1.296 -1.12,0.464 -2.416,0.464 z m 0,-1.728 q 0.928,0 1.696,-0.336 0.784,-0.336 1.36,-0.928 0.576,-0.608 0.896,-1.408 0.32,-0.816 0.32,-1.76 0,-0.944 -0.32,-1.744 -0.32,-0.8 -0.896,-1.408 -0.576,-0.608 -1.36,-0.944 -0.768,-0.336 -1.696,-0.336 -0.928,0 -1.712,0.336 -0.768,0.336 -1.344,0.944 -0.576,0.608 -0.896,1.408 -0.304,0.8 -0.304,1.744 0,0.944 0.304,1.76 0.32,0.8 0.896,1.408 0.576,0.592 1.36,0.928 0.784,0.336 1.696,0.336 z"
       id="path86" />
    <path
       d="m 642.63192,181.192 q -1.264,0 -2.352,-0.464 -1.072,-0.464 -1.888,-1.28 -0.8,-0.832 -1.248,-1.952 -0.448,-1.12 -0.448,-2.464 0,-1.328 0.432,-2.448 0.448,-1.136 1.248,-1.952 0.8,-0.832 1.872,-1.28 1.072,-0.464 2.352,-0.464 1.264,0 2.256,0.432 1.008,0.432 1.696,1.136 0.688,0.688 0.992,1.504 l -1.68,0.816 q -0.368,-0.976 -1.216,-1.568 -0.848,-0.608 -2.048,-0.608 -1.184,0 -2.096,0.56 -0.912,0.56 -1.424,1.552 -0.496,0.992 -0.496,2.32 0,1.328 0.512,2.336 0.528,0.992 1.44,1.552 0.912,0.544 2.096,0.544 0.992,0 1.808,-0.4 0.832,-0.416 1.328,-1.152 0.496,-0.752 0.496,-1.744 v -0.816 l 0.848,0.768 h -4.512 v -1.6 h 5.536 v 1.12 q 0,1.312 -0.448,2.352 -0.448,1.024 -1.216,1.744 -0.768,0.72 -1.76,1.088 -0.992,0.368 -2.08,0.368 z"
       id="path88" />
    <path
       d="m 652.91993,181 4.192,-11.92 h 2.336 l 4.192,11.92 h -2.016 l -0.912,-2.672 h -4.848 l -0.928,2.672 z m 3.488,-4.352 h 3.728 l -2.112,-6.24 h 0.528 z"
       id="path90" />
    <path
       d="m 670.35993,181 v -10.24 h -3.168 v -1.68 h 8.16 v 1.68 h -3.12 V 181 Z"
       id="path92" />
    <path
       d="m 678.90394,181 4.192,-11.92 h 2.336 l 4.192,11.92 h -2.016 l -0.912,-2.672 h -4.848 l -0.928,2.672 z m 3.488,-4.352 h 3.728 l -2.112,-6.24 h 0.528 z m 0.976,-9.152 1.168,-2.64 h 2.368 l -1.744,2.64 z"
       id="path94" />
    <path
       d="m 699.04792,181.192 q -1.12,0 -2.08,-0.416 -0.96,-0.432 -1.632,-1.168 -0.672,-0.736 -0.992,-1.696 l 1.6,-0.672 q 0.432,1.104 1.264,1.696 0.832,0.592 1.92,0.592 0.64,0 1.12,-0.192 0.48,-0.208 0.736,-0.576 0.272,-0.368 0.272,-0.848 0,-0.656 -0.368,-1.04 -0.368,-0.384 -1.088,-0.608 l -2.24,-0.704 q -1.344,-0.416 -2.048,-1.264 -0.704,-0.864 -0.704,-2.016 0,-1.008 0.496,-1.76 0.496,-0.768 1.36,-1.2 0.88,-0.432 2,-0.432 1.072,0 1.952,0.384 0.88,0.368 1.504,1.024 0.64,0.656 0.928,1.52 l -1.568,0.688 q -0.352,-0.944 -1.104,-1.456 -0.736,-0.512 -1.712,-0.512 -0.592,0 -1.04,0.208 -0.448,0.192 -0.704,0.576 -0.24,0.368 -0.24,0.864 0,0.576 0.368,1.024 0.368,0.448 1.12,0.672 l 2.08,0.656 q 1.424,0.432 2.144,1.248 0.72,0.8 0.72,2 0,0.992 -0.528,1.76 -0.512,0.768 -1.424,1.216 -0.912,0.432 -2.112,0.432 z"
       id="path96" />
  </g>
</svg>
